<?xml version="1.0" encoding="utf-8"?>
<!-- Generator: Adobe Illustrator 27.1.1, SVG Export Plug-In . SVG Version: 6.00 Build 0)  -->
<svg version="1.2" baseProfile="tiny"
	 id="svg4550" xmlns:sodipodi="http://sodipodi.sourceforge.net/DTD/sodipodi-0.dtd" xmlns:cc="http://creativecommons.org/ns#" xmlns:inkscape="http://www.inkscape.org/namespaces/inkscape" xmlns:svg="http://www.w3.org/2000/svg" xmlns:dc="http://purl.org/dc/elements/1.1/" xmlns:rdf="http://www.w3.org/1999/02/22-rdf-syntax-ns#"
	 xmlns="http://www.w3.org/2000/svg" xmlns:xlink="http://www.w3.org/1999/xlink" x="0px" y="0px" viewBox="0 0 1484.18 374.76"
	 overflow="visible" xml:space="preserve">
<sodipodi:namedview  bordercolor="#666666" borderopacity="1.0" fit-margin-bottom="0" fit-margin-left="0" fit-margin-right="0" fit-margin-top="0" id="base" inkscape:current-layer="layer3" inkscape:cx="314.20269" inkscape:cy="190.89262" inkscape:document-units="px" inkscape:guide-bbox="true" inkscape:pageopacity="0.0" inkscape:pageshadow="2" inkscape:window-height="1346" inkscape:window-maximized="1" inkscape:window-width="2160" inkscape:window-x="-11" inkscape:window-y="-11" inkscape:zoom="2" pagecolor="#ffffff" showgrid="false" showguides="true" units="px">
	
		<sodipodi:guide  id="guide5122" inkscape:color="rgb(0,0,255)" inkscape:label="Segoe UI" inkscape:locked="false" orientation="0,1" position="0,52.916665">
		</sodipodi:guide>
	
		<sodipodi:guide  id="guide4627" inkscape:color="rgb(0,0,255)" inkscape:label="" inkscape:locked="false" orientation="1,0" position="85.98958,0">
		</sodipodi:guide>
</sodipodi:namedview>
<g id="layer3" inkscape:groupmode="layer" inkscape:label="Pin (hard)" display="none">
	
		<path id="path875" inkscape:connector-curvature="0" sodipodi:nodetypes="cccccc" display="inline" fill="#0C0303" fill-opacity="0.9805" d="
		M263.44,292.92v70.5l14.38,17l14.37-17v-70.5H263.44z"/>
</g>
<g>
	<circle cx="277.81" cy="188.42" r="10.96"/>
	<path d="M514.41,106.88h-23.88l-33.51,135.37l-34.28-135.37h-24.42l-10.92,42.03c-16.15-44.45-58.76-76.2-108.79-76.2
		c-58.75,0-107.26,43.78-114.72,100.49l-17.56,70.59l-34.06-136.91H90.25L56.52,242.47L22.23,106.88H0l43.15,163.08h23.88
		l33.52-135.37l34.28,135.37h24.42l10.78-41.46c0.8,2.16,1.68,4.29,2.6,6.39c25.31,66.45,99.19,94.93,99.19,133.02
		c0,7.71,6,6.82,6,6.82s6,0.89,6-6.82c0-34.17,59.43-60.61,89.94-113.64c5.75-8.29,10.44-17.36,13.88-27.03
		c0.09,0.05,0.15,0.09,0.15,0.09l0.43-1.73c2.01-5.93,3.55-12.08,4.58-18.39l18.45-74.14l34.06,136.91h22.01l33.73-135.59
		l34.28,135.59h22.23L514.41,106.88z M228.86,106.63l7.04,12.2c0.28,0.48,0.78,0.75,1.3,0.75c0.25,0,0.51-0.06,0.75-0.2
		c0.72-0.41,0.96-1.33,0.55-2.05l-7.05-12.22c13.3-7.54,28.58-12,44.86-12.38v14.46c0,0.83,0.67,1.5,1.5,1.5
		c0.83,0,1.5-0.67,1.5-1.5V92.71c16.39,0.12,31.8,4.36,45.25,11.73l-7.44,12.88c-0.41,0.72-0.17,1.63,0.55,2.05
		c0.24,0.14,0.49,0.2,0.75,0.2c0.52,0,1.02-0.27,1.3-0.75l7.45-12.9c13.67,8.06,25.16,19.42,33.37,32.99l-13.14,7.59
		c-0.72,0.41-0.96,1.33-0.55,2.05c0.28,0.48,0.78,0.75,1.3,0.75c0.25,0,0.51-0.06,0.75-0.2l13.15-7.59
		c7.58,13.45,11.99,28.92,12.25,45.4h-15.26c-0.83,0-1.5,0.67-1.5,1.5s0.67,1.5,1.5,1.5h15.26c-0.25,16.48-4.67,31.95-12.25,45.4
		l-13.15-7.59c-0.72-0.42-1.63-0.17-2.05,0.55c-0.41,0.72-0.17,1.63,0.55,2.05l13.14,7.59c-8.21,13.57-19.7,24.93-33.37,32.99
		l-7.45-12.9c-0.41-0.72-1.33-0.96-2.05-0.55c-0.72,0.41-0.96,1.33-0.55,2.05l7.44,12.88c-13.45,7.38-28.86,11.61-45.25,11.73
		v-14.48c0-0.83-0.67-1.5-1.5-1.5c-0.83,0-1.5,0.67-1.5,1.5v14.46c-16.29-0.38-31.57-4.84-44.86-12.38l7.05-12.22
		c0.41-0.72,0.17-1.63-0.55-2.05c-0.72-0.41-1.64-0.17-2.05,0.55l-7.04,12.2c-13.38-8.15-24.59-19.5-32.6-32.97l11.96-6.91
		c0.72-0.41,0.96-1.33,0.55-2.05c-0.41-0.72-1.33-0.96-2.05-0.55l-11.95,6.9c-7.34-13.29-11.61-28.51-11.86-44.71h13.69
		c0.83,0,1.5-0.67,1.5-1.5s-0.67-1.5-1.5-1.5h-13.69c0.25-16.2,4.52-31.42,11.86-44.71l11.95,6.9c0.24,0.14,0.49,0.2,0.75,0.2
		c0.52,0,1.02-0.27,1.3-0.75c0.41-0.72,0.17-1.63-0.55-2.05l-11.96-6.91C204.27,126.13,215.49,114.78,228.86,106.63z"/>
</g>
<path id="path4260" sodipodi:cx="177.70299" sodipodi:cy="65.896828" sodipodi:end="4.9741884" sodipodi:rx="49.852184" sodipodi:ry="49.852184" sodipodi:start="4.712389" sodipodi:type="arc" fill="#2A69FF" d="
	M277.81,0c16.47,0,32.86,2.16,48.77,6.42l-48.77,182V0z"/>
<g>
	<path d="M612.8,269.94V106.87h66.38c6.74,0,12.9,1.42,18.49,4.25c5.59,2.83,10.41,6.62,14.47,11.37
		c4.06,4.75,7.23,10.03,9.53,15.85c2.3,5.82,3.45,11.79,3.45,17.91c0,8.42-1.88,16.42-5.63,24c-3.75,7.58-8.92,13.74-15.5,18.49
		c-6.59,4.75-14.32,7.12-23.2,7.12h-63.39v64.08H612.8z M617.39,201.27h63.39c8.27,0,15.39-2.22,21.36-6.66
		c5.97-4.44,10.53-10.11,13.67-17c3.14-6.89,4.71-14.01,4.71-21.36c0-7.81-1.84-15.12-5.51-21.93c-3.68-6.81-8.65-12.32-14.93-16.54
		c-6.28-4.21-13.25-6.32-20.9-6.32h-61.78V201.27z"/>
	<path d="M819.28,271.09c-11.18,0-21.44-2.33-30.78-7.01c-9.34-4.67-17.38-10.91-24.12-18.72c-6.74-7.81-11.94-16.65-15.62-26.53
		c-3.68-9.88-5.51-20.02-5.51-30.43c0-10.87,1.91-21.25,5.74-31.12c3.83-9.88,9.19-18.68,16.08-26.41
		c6.89-7.73,14.96-13.86,24.23-18.37c9.26-4.51,19.25-6.78,29.97-6.78c11.33,0,21.63,2.38,30.89,7.12
		c9.26,4.75,17.23,11.1,23.89,19.06c6.66,7.96,11.83,16.85,15.5,26.64c3.67,9.8,5.51,19.75,5.51,29.86
		c0,11.02-1.92,21.47-5.74,31.35c-3.83,9.88-9.19,18.68-16.08,26.41c-6.89,7.73-14.93,13.82-24.12,18.26
		C839.95,268.87,829.99,271.09,819.28,271.09z M747.85,188.4c0,10.11,1.76,19.83,5.28,29.17c3.52,9.34,8.5,17.69,14.93,25.03
		c6.43,7.35,14.01,13.17,22.74,17.46c8.73,4.29,18.22,6.43,28.48,6.43c10.57,0,20.21-2.22,28.94-6.66
		c8.73-4.44,16.23-10.41,22.51-17.91c6.28-7.5,11.14-15.88,14.58-25.15c3.44-9.26,5.17-18.72,5.17-28.36
		c0-10.11-1.8-19.83-5.4-29.17c-3.6-9.34-8.61-17.69-15.04-25.04c-6.43-7.35-13.97-13.17-22.62-17.46
		c-8.65-4.28-18.03-6.43-28.14-6.43c-10.57,0-20.25,2.22-29.05,6.66c-8.81,4.44-16.35,10.41-22.62,17.91
		c-6.28,7.5-11.14,15.89-14.58,25.15C749.57,169.3,747.85,178.76,747.85,188.4z"/>
	<path d="M917.12,187.02c0-9.8,1.72-19.48,5.17-29.05c3.45-9.57,8.46-18.3,15.04-26.18c6.58-7.88,14.62-14.2,24.12-18.95
		c9.49-4.74,20.36-7.12,32.61-7.12c14.55,0,26.87,3.33,36.98,9.99c10.11,6.66,17.61,15.2,22.51,25.61l-4.36,1.38
		c-4.13-7.96-9.27-14.32-15.39-19.06c-6.13-4.74-12.67-8.15-19.64-10.22c-6.97-2.07-13.97-3.1-21.02-3.1
		c-11.33,0-21.44,2.22-30.32,6.66c-8.88,4.44-16.39,10.41-22.51,17.91c-6.13,7.5-10.76,15.81-13.9,24.92
		c-3.14,9.11-4.71,18.41-4.71,27.91c0,10.41,1.84,20.33,5.51,29.74s8.8,17.8,15.39,25.15c6.58,7.35,14.24,13.17,22.97,17.46
		c8.73,4.29,18.14,6.43,28.25,6.43c7.19,0,14.55-1.22,22.05-3.68c7.5-2.45,14.55-6.2,21.13-11.25c6.58-5.05,11.94-11.56,16.08-19.52
		l4.36,1.15c-3.67,8.12-9.04,15.01-16.08,20.67c-7.04,5.67-14.81,9.96-23.31,12.86c-8.5,2.91-16.88,4.36-25.15,4.36
		c-11.02,0-21.17-2.41-30.43-7.23c-9.27-4.82-17.31-11.25-24.12-19.29c-6.81-8.04-12.06-17.07-15.73-27.1
		C918.95,207.43,917.12,197.29,917.12,187.02z"/>
	<path d="M1088.91,269.94V106.87h4.59v105.88l103.81-105.88h6.66l-69.59,71.2l72.81,91.87h-5.97l-70.28-88.66l-37.44,37.9v50.76
		H1088.91z"/>
	<path d="M1338.57,265.34v4.59h-107.03V106.87h104.96v4.59h-100.37v72.81h87.97v4.59h-87.97v76.48H1338.57z"/>
	<path d="M1484.18,111.46h-62.47v158.48h-4.59V111.46h-62.47v-4.59h129.54V111.46z"/>
</g>
</svg>
